<svg width="683" height="556" viewBox="0 0 683 556" fill="none" xmlns="http://www.w3.org/2000/svg">
<path d="M657.675 386.04C655.616 404.447 655.68 416.032 658.319 416.482C660.957 416.933 665.656 406.184 671.191 388.421C673.894 379.539 676.854 369.113 679.815 357.014C680.523 353.989 681.295 351.157 682.067 347.553C682.934 343.306 682.934 338.927 682.067 334.681C681.525 331.79 680.379 329.047 678.704 326.629C677.03 324.211 674.864 322.174 672.349 320.65C667.54 317.924 662.109 316.484 656.581 316.467C652.273 316.413 647.968 316.714 643.709 317.368C639.976 317.883 636.307 318.526 632.639 319.105C625.431 320.393 618.48 321.809 611.979 323.353C600.58 326.223 589.361 329.769 578.383 333.973C559.526 341.181 549.035 347.874 550.001 350.063C550.966 352.251 563.259 350.062 582.181 346.008C591.835 344.077 603.226 341.76 615.97 339.572C622.406 338.542 628.842 337.448 635.986 336.483C642.652 335.386 649.38 334.699 656.13 334.423H656.838C648.491 340.391 640.497 346.838 632.896 353.731C614.94 368.727 586.107 394.214 535.327 431.735C509.904 450.207 478.69 472.154 440.138 495.066C419.424 507.325 397.46 517.336 374.62 524.929C348.914 533.863 321.268 535.664 294.62 530.142C265.632 522.843 240.287 505.253 223.309 480.649C207.015 457.59 196.367 431.025 192.223 403.095C222.917 399.124 252.711 389.961 280.332 376C317.388 357.462 348.909 329.493 371.724 294.906C382.685 277.248 389.302 257.243 391.032 236.532C391.961 225.927 390.958 215.241 388.071 204.995C385.047 194.047 379.34 184.026 371.466 175.84C362.838 167.424 352.336 161.175 340.823 157.606C329.311 154.037 317.116 153.25 305.24 155.309C283.291 159.474 262.787 169.227 245.707 183.628C237.52 190.165 229.977 197.471 223.181 205.446C219.77 209.372 216.745 213.555 213.72 217.738C210.695 221.922 208.249 226.041 205.61 230.61C195.55 247.29 187.267 264.978 180.896 283.386C169.236 317.413 164.616 353.455 167.316 389.322C165.45 389.322 163.583 389.322 161.781 389.322C124.452 390.095 87.0593 382.436 58.8052 364.093C45.1124 355.603 33.7969 343.778 25.9173 329.725C18.7198 316.363 14.4627 301.617 13.4314 286.475C11.9636 257.812 15.5807 229.115 24.1152 201.713C30.8371 177.228 39.4441 153.301 49.8592 130.144C65.2023 96.2317 84.1012 64.0429 106.239 34.1192C122.071 12.816 131.983 1.93915 131.081 1.10247C130.18 0.26579 127.992 3.35517 122.972 8.43961C120.462 10.8853 117.502 14.1676 114.026 18.0292C110.551 21.8908 106.625 26.3317 102.377 31.5448C61.8623 80.881 31.5226 137.754 13.1096 198.881C3.5684 227.307 -0.791434 257.216 0.237576 287.183C1.07167 303.981 5.45885 320.411 13.1096 335.388C21.8423 351.548 34.5027 365.248 49.9235 375.227C81.5886 396.273 121.942 404.833 162.103 404.64C164.42 404.64 166.737 404.64 169.054 404.64C173.463 436.247 185.356 466.344 203.744 492.427C214.016 506.851 226.66 519.43 241.137 529.627C255.545 539.748 271.754 547.023 288.892 551.059C305.085 554.805 321.775 555.914 338.321 554.341C353.329 552.963 368.137 549.919 382.472 545.267C406.99 537.104 430.554 526.315 452.753 513.087C486.086 492.881 518.312 470.902 549.293 447.246C583.058 421.913 615.036 394.28 644.996 364.544C651.658 357.923 657.974 350.963 663.918 343.691C663.918 346.78 662.952 350.127 662.373 353.796C660.378 365.831 658.833 376.708 657.804 385.976L657.675 386.04ZM202.843 289.436C208.644 272.346 216.215 255.909 225.433 240.393C227.815 236.531 230.26 232.541 232.835 228.808C235.346 225.106 238.053 221.539 240.944 218.124C246.743 211.081 253.209 204.615 260.252 198.816C274.189 186.818 290.959 178.577 308.973 174.875C317.553 173.443 326.344 173.927 334.717 176.29C342.835 178.527 350.225 182.855 356.148 188.841C361.767 195.122 365.991 202.521 368.542 210.553C371.094 218.585 371.915 227.066 370.951 235.437C369.503 253.351 363.93 270.687 354.668 286.089C333.966 317.996 305.277 343.934 271.451 361.326C246.124 374.397 218.773 383.1 190.55 387.07C188.013 353.928 192.172 320.615 202.779 289.114L202.843 289.436ZM662.888 336.29C662.888 336.29 662.888 336.29 662.888 335.903C663.071 336.044 663.224 336.218 663.339 336.418" fill="#072333"/>
</svg>
